<?xml version="1.0" standalone="no"?>
<!DOCTYPE svg PUBLIC "-//W3C//DTD SVG 20010904//EN"
 "http://www.w3.org/TR/2001/REC-SVG-20010904/DTD/svg10.dtd">
<svg version="1.0" xmlns="http://www.w3.org/2000/svg"
 width="260.000000pt" height="260.000000pt" viewBox="0 0 260.000000 260.000000"
 preserveAspectRatio="xMidYMid meet">
<metadata>
Created by potrace 1.11, written by Peter Selinger 2001-2013
</metadata>
<g transform="translate(0.000000,260.000000) scale(0.100000,-0.100000)"
fill="#000000" stroke="none">
<path d="M0 1300 l0 -1300 1300 0 1300 0 0 1300 c0 715 -3 1300 -6 1300 -3 0
-15 -5 -26 -11 -11 -6 -18 -7 -14 -1 3 6 -28 10 -84 11 -56 1 -90 -2 -90 -9 0
-5 -5 -10 -11 -10 -5 0 -7 4 -4 10 4 6 -203 10 -595 10 -478 0 -600 -3 -594
-13 6 -9 4 -9 -8 1 -19 15 -412 16 -402 1 3 -5 0 -9 -5 -9 -6 0 -11 5 -11 10
0 6 -132 10 -375 10 l-375 0 0 -1300z m2260 1264 c0 -2 -9 -4 -20 -4 -11 0
-20 4 -20 9 0 5 9 7 20 4 11 -3 20 -7 20 -9z m50 8 c0 -5 -7 -9 -15 -9 -8 0
-15 4 -15 9 0 4 7 8 15 8 8 0 15 -4 15 -8z m-365 -12 c3 -6 -1 -7 -9 -4 -18 7
-21 14 -7 14 6 0 13 -4 16 -10z m180 -4 c7 3 16 0 21 -7 5 -9 2 -10 -9 -6 -10
4 -17 1 -17 -6 0 -8 -4 -6 -10 3 -5 8 -9 20 -9 25 0 6 3 5 5 -2 3 -7 11 -10
19 -7z m-450 -6 c3 -5 1 -10 -4 -10 -6 0 -11 5 -11 10 0 6 2 10 4 10 3 0 8 -4
11 -10z m535 0 c0 -5 -5 -10 -11 -10 -5 0 -7 5 -4 10 3 6 8 10 11 10 2 0 4 -4
4 -10z m-985 -10 c3 -5 2 -10 -4 -10 -5 0 -13 5 -16 10 -3 6 -2 10 4 10 5 0
13 -4 16 -10z m1145 0 c0 -5 -2 -10 -4 -10 -3 0 -8 5 -11 10 -3 6 -1 10 4 10
6 0 11 -4 11 -10z m-739 -17 c13 -16 12 -17 -3 -4 -10 7 -18 15 -18 17 0 8 8
3 21 -13z m369 7 c-18 -12 -30 -13 -30 -2 0 4 10 9 22 9 18 2 20 0 8 -7z m155
-8 c6 -4 17 -16 25 -27 12 -17 10 -16 -11 3 -14 12 -29 19 -32 15 -4 -3 -7 -1
-7 5 0 14 10 15 25 4z m-2015 -22 c0 -5 -2 -10 -4 -10 -3 0 -8 5 -11 10 -3 6
-1 10 4 10 6 0 11 -4 11 -10z m1310 -6 c0 -2 -7 -4 -15 -4 -8 0 -15 4 -15 10
0 5 7 7 15 4 8 -4 15 -8 15 -10z m-510 -14 c8 -5 11 -10 5 -10 -5 0 -17 5 -25
10 -8 5 -10 10 -5 10 6 0 17 -5 25 -10z m1294 1 c3 -5 -1 -11 -9 -14 -9 -4
-12 -1 -8 9 6 16 10 17 17 5z m-189 -11 c3 -5 1 -10 -4 -10 -6 0 -11 5 -11 10
0 6 2 10 4 10 3 0 8 -4 11 -10z m-155 -10 c0 -5 -5 -10 -11 -10 -5 0 -7 5 -4
10 3 6 8 10 11 10 2 0 4 -4 4 -10z m264 -6 c9 -24 7 -28 -9 -14 -17 14 -20 30
-6 30 5 0 12 -7 15 -16z m141 -14 c3 -5 2 -10 -4 -10 -5 0 -13 5 -16 10 -3 6
-2 10 4 10 5 0 13 -4 16 -10z m-740 -10 c-3 -5 -10 -10 -16 -10 -5 0 -9 5 -9
10 0 6 7 10 16 10 8 0 12 -4 9 -10z m395 0 c0 -5 -2 -10 -4 -10 -3 0 -8 5 -11
10 -3 6 -1 10 4 10 6 0 11 -4 11 -10z m-185 -20 c3 -5 1 -10 -4 -10 -6 0 -11
5 -11 10 0 6 2 10 4 10 3 0 8 -4 11 -10z m310 -18 c-3 -3 -11 0 -18 7 -9 10
-8 11 6 5 10 -3 15 -9 12 -12z m-875 -6 c0 -3 -4 -8 -10 -11 -5 -3 -10 -1 -10
4 0 6 5 11 10 11 6 0 10 -2 10 -4z m404 -4 c3 -5 -1 -9 -9 -9 -8 0 -12 4 -9 9
3 4 7 8 9 8 2 0 6 -4 9 -8z m-449 -22 c3 -6 -1 -7 -9 -4 -18 7 -21 14 -7 14 6
0 13 -4 16 -10z m500 0 c3 -5 1 -10 -4 -10 -6 0 -11 5 -11 10 0 6 2 10 4 10 3
0 8 -4 11 -10z m-915 -10 c0 -5 -2 -10 -4 -10 -3 0 -8 5 -11 10 -3 6 -1 10 4
10 6 0 11 -4 11 -10z m724 -6 c3 -8 2 -12 -4 -9 -6 3 -10 10 -10 16 0 14 7 11
14 -7z m431 6 c3 -5 1 -10 -4 -10 -6 0 -11 5 -11 10 0 6 2 10 4 10 3 0 8 -4
11 -10z m450 -10 c3 -5 1 -10 -4 -10 -6 0 -11 5 -11 10 0 6 2 10 4 10 3 0 8
-4 11 -10z m-1210 -9 c18 -10 38 -10 57 0 14 8 16 6 11 -7 -5 -14 -1 -16 28
-11 36 7 120 -13 147 -35 13 -10 14 -10 8 0 -4 7 -1 12 8 12 10 0 13 -6 10
-15 -4 -8 -1 -15 4 -15 6 0 13 -9 17 -19 6 -19 63 -53 76 -45 6 3 19 -17 23
-36 3 -13 25 -44 26 -35 0 8 25 -33 56 -94 4 -7 3 -16 -2 -20 -12 -8 -16 -31
-5 -31 5 0 11 -9 14 -20 3 -11 0 -20 -6 -20 -6 0 3 -13 21 -29 19 -18 30 -36
26 -44 -3 -8 0 -18 6 -22 9 -5 9 -10 1 -14 -7 -5 -6 -15 3 -33 12 -22 12 -30
1 -45 -9 -12 -10 -23 -4 -36 6 -9 7 -22 4 -27 -3 -5 0 -12 6 -16 8 -4 7 -9 -2
-15 -9 -6 -10 -9 -2 -9 6 0 11 -9 10 -20 -1 -11 -7 -20 -14 -20 -21 0 -15 -10
31 -55 31 -29 47 -54 52 -80 9 -49 -1 -155 -23 -230 -9 -33 -17 -75 -17 -92 0
-18 -2 -31 -4 -28 -2 2 -11 -2 -19 -10 -8 -8 -27 -15 -43 -15 -24 0 -29 -5
-35 -37 -12 -67 -14 -113 -4 -119 15 -9 20 0 21 36 1 23 4 28 10 17 4 -8 7
-26 7 -39 -1 -12 2 -32 5 -43 7 -19 7 -19 -7 -3 -22 28 -26 22 -22 -34 11
-126 17 -158 36 -183 28 -35 30 -141 4 -212 -10 -29 -22 -50 -26 -47 -5 3 -4
16 1 30 6 14 10 33 10 42 -1 24 -34 -41 -58 -113 -32 -97 -63 -159 -72 -145
-4 6 -1 33 6 58 8 25 12 48 9 50 -3 3 -5 0 -5 -6 0 -12 -64 -45 -92 -47 -10
-1 -17 3 -15 9 2 5 -7 19 -20 31 -32 27 -33 81 -2 137 7 12 14 28 14 33 1 6 7
9 14 7 7 -1 10 2 6 7 -7 13 22 71 36 71 6 0 7 5 3 12 -4 6 1 17 11 24 9 7 18
25 19 41 2 15 8 38 14 49 6 12 9 24 6 27 -3 3 2 16 10 29 9 14 18 38 19 54 2
17 12 42 21 56 11 17 13 27 6 30 -8 2 -8 11 -1 31 6 16 11 38 11 50 0 20 -2
19 -28 -9 -16 -17 -35 -46 -42 -64 -7 -18 -24 -43 -38 -55 -14 -13 -20 -25
-14 -29 7 -4 6 -18 -1 -44 -12 -40 -37 -84 -37 -64 0 6 -5 12 -10 12 -6 0 -8
-15 -4 -39 5 -32 2 -43 -15 -60 -12 -12 -19 -26 -16 -31 4 -6 2 -10 -2 -10 -5
0 -16 -12 -25 -27 -26 -45 -51 -70 -78 -78 -14 -4 -28 -13 -32 -19 -5 -7 -12
-4 -22 9 -8 11 -18 17 -21 13 -4 -4 -17 -3 -28 3 -14 8 -18 8 -13 0 4 -6 1
-11 -8 -11 -8 0 -16 -6 -18 -12 -3 -8 -9 -4 -17 10 -16 30 -30 28 -42 -8 -6
-16 -15 -30 -21 -30 -5 0 -7 4 -4 8 3 5 -8 9 -24 9 -17 0 -30 -5 -30 -10 0 -5
-7 -4 -15 3 -9 7 -19 9 -23 5 -4 -4 -1 -10 7 -13 11 -4 11 -6 0 -13 -8 -5 -21
-2 -32 9 -16 14 -20 14 -29 2 -8 -12 -9 -12 -4 2 3 10 1 20 -4 23 -6 4 -10 18
-10 33 -1 27 -1 27 -18 6 -10 -11 -23 -19 -30 -16 -18 6 -62 78 -62 102 0 11
-4 20 -10 20 -5 0 -7 7 -4 15 4 8 0 23 -7 32 -12 14 -12 16 1 8 11 -6 10 -3
-2 12 -19 21 -24 53 -9 53 5 0 12 8 16 18 5 14 4 15 -6 4 -7 -6 -19 -12 -26
-12 -10 0 -9 7 4 27 10 16 22 31 27 34 5 4 6 11 2 17 -3 5 0 15 8 21 11 9 15
9 19 -1 3 -10 8 -9 23 3 10 9 26 14 34 11 13 -5 13 -3 0 13 -14 17 -13 17 10
10 14 -4 30 -12 37 -17 6 -5 25 -7 42 -5 17 3 33 1 37 -4 7 -11 62 -11 89 1
14 6 15 9 5 10 -12 0 -12 3 2 11 27 15 110 39 120 33 11 -7 46 14 83 47 16 16
35 29 40 29 6 0 4 -4 -4 -9 -9 -6 -10 -11 -2 -15 6 -4 11 -18 11 -31 0 -29 40
-41 81 -23 34 15 50 43 20 35 -12 -3 -27 3 -37 14 -9 10 -21 16 -26 13 -5 -3
-4 3 3 14 7 12 17 18 21 16 4 -3 8 0 8 6 0 6 -16 20 -35 32 -20 11 -34 23 -31
26 3 3 12 -1 21 -8 12 -10 15 -10 15 0 0 7 7 10 15 6 8 -3 21 -9 29 -12 10 -4
13 0 11 13 -2 10 -4 30 -4 46 -1 15 -6 27 -12 27 -5 0 -7 -5 -3 -11 3 -6 -8
-3 -25 5 -17 9 -34 15 -38 14 -17 -3 -94 35 -107 54 -8 10 -31 21 -52 25 l-39
6 28 -22 c15 -12 27 -32 27 -44 0 -16 3 -18 9 -9 8 13 12 10 91 -72 l24 -26
-31 -10 c-17 -6 -34 -18 -37 -25 -6 -18 -75 -47 -93 -41 -7 3 -12 0 -10 -6 2
-10 -10 -12 -78 -9 -25 1 -25 2 -9 26 9 14 23 25 32 25 17 0 92 79 92 98 0 13
-38 8 -73 -10 -9 -5 -22 -6 -27 -3 -5 3 -20 0 -32 -6 -29 -16 -53 -18 -95 -9
-18 5 -36 4 -39 -1 -9 -16 -43 -10 -54 10 -8 16 -5 26 15 49 28 33 33 54 11
46 -8 -3 -17 0 -22 7 -4 8 -3 10 4 5 7 -4 12 -1 12 8 0 9 9 16 20 16 13 0 21
9 25 28 4 15 10 45 15 66 5 22 6 44 3 49 -3 5 1 13 8 18 21 13 59 11 59 -4 0
-13 48 -67 85 -97 17 -14 17 -14 4 7 -7 12 -11 25 -7 28 3 3 44 7 91 8 53 1
91 7 99 15 10 9 3 12 -34 12 -46 0 -69 12 -48 25 5 3 31 10 58 14 26 5 56 12
66 16 14 6 17 5 12 -3 -9 -15 3 -15 33 2 23 13 22 13 -27 29 -28 10 -76 17
-106 17 -52 0 -73 11 -43 23 9 4 9 8 -2 15 -11 8 -10 11 5 16 10 3 -3 3 -30 1
-26 -3 -70 -17 -97 -32 -43 -23 -52 -25 -76 -14 -26 12 -26 12 -11 -11 8 -13
25 -24 37 -26 11 -2 21 -8 21 -14 0 -15 -95 -3 -122 17 -13 8 -32 15 -43 15
-16 0 -17 -2 -5 -10 8 -5 11 -12 8 -15 -4 -4 -16 0 -28 8 -33 23 -193 3 -259
-32 -34 -18 -42 -13 -39 26 1 23 -2 38 -11 41 -11 4 -11 6 0 13 8 5 -1 6 -23
2 -34 -5 -38 -3 -38 16 0 12 -4 20 -9 16 -20 -12 -29 33 -24 113 4 66 2 82 -9
80 -8 -2 -13 6 -12 24 0 15 -5 26 -10 25 -6 -1 -9 10 -8 26 2 15 -4 39 -13 53
-15 24 -15 26 2 42 17 15 18 20 6 42 -10 21 -10 26 2 28 7 2 11 10 9 17 -3 8
6 30 21 50 15 19 24 35 20 35 -5 0 2 8 13 19 12 10 19 21 15 25 -3 3 1 6 10 6
8 0 28 18 44 40 15 22 43 47 61 55 17 9 32 20 32 25 0 5 6 7 14 4 8 -3 20 1
27 9 7 8 21 12 31 9 10 -2 20 2 24 12 3 9 14 16 24 16 10 0 38 8 62 18 24 9
64 17 91 16 26 0 47 3 47 7 0 4 8 10 18 13 22 6 164 4 177 -3z m705 -21 c-8
-5 -19 -10 -25 -10 -5 0 -3 5 5 10 8 5 20 10 25 10 6 0 3 -5 -5 -10z m-54 -28
c-17 -16 -18 -16 -5 5 7 12 15 20 18 17 3 -2 -3 -12 -13 -22z m-296 -17 c-7
-9 -15 -13 -19 -10 -3 3 1 10 9 15 21 14 24 12 10 -5z m490 1 c0 -2 -7 -7 -16
-10 -8 -3 -12 -2 -9 4 6 10 25 14 25 6z m-285 -56 c3 -5 1 -10 -4 -10 -6 0
-11 5 -11 10 0 6 2 10 4 10 3 0 8 -4 11 -10z m335 -10 c0 -5 -2 -10 -4 -10 -3
0 -8 5 -11 10 -3 6 -1 10 4 10 6 0 11 -4 11 -10z m-495 -10 c3 -5 1 -10 -4
-10 -6 0 -11 5 -11 10 0 6 2 10 4 10 3 0 8 -4 11 -10z m306 -7 c13 -17 13 -17
-6 -3 -11 8 -22 16 -24 17 -2 2 0 3 6 3 6 0 17 -8 24 -17z m159 -33 c0 -5 -4
-10 -10 -10 -5 0 -10 5 -10 10 0 6 5 10 10 10 6 0 10 -4 10 -10z m45 0 c3 -5
1 -10 -4 -10 -6 0 -11 5 -11 10 0 6 2 10 4 10 3 0 8 -4 11 -10z m-430 -80 c-3
-5 -11 -10 -16 -10 -6 0 -7 5 -4 10 3 6 11 10 16 10 6 0 7 -4 4 -10z m98 -157
c-7 -2 -19 -2 -25 0 -7 3 -2 5 12 5 14 0 19 -2 13 -5z m-993 -488 c0 -3 -15
-11 -32 -19 -33 -13 -33 -14 -10 -23 23 -9 23 -9 -11 -20 -29 -9 -37 -8 -41 3
-8 21 -36 17 -36 -6 0 -11 5 -20 11 -20 8 0 8 -5 -1 -15 -18 -22 -35 -18 -48
10 -9 19 -9 24 0 22 7 -1 12 4 13 10 0 17 34 39 76 51 38 11 79 15 79 7z m51
-129 c-21 -25 -101 -30 -101 -6 0 11 26 17 74 19 32 1 36 -1 27 -13z m99 -16
c0 -5 -12 -23 -27 -40 -37 -41 -124 -64 -205 -55 -75 9 -119 49 -68 62 11 3
20 12 20 19 0 18 57 19 63 2 5 -18 123 -14 167 5 43 19 50 20 50 7z m-190
-105 c60 0 95 5 119 18 19 9 37 15 39 12 7 -7 4 -9 -43 -34 l-40 -22 33 4 c27
3 32 0 33 -17 0 -12 2 -31 3 -44 3 -28 -19 -50 -28 -27 -3 9 -2 13 4 10 6 -3
10 -1 10 4 0 6 -9 11 -20 11 -11 0 -20 -6 -20 -14 0 -16 -36 -32 -59 -27 -8 1
-17 -1 -20 -6 -3 -4 -16 -13 -28 -20 -17 -10 -24 -9 -32 1 -14 16 5 36 28 29
9 -2 3 7 -14 21 -16 14 -35 24 -42 22 -18 -7 -46 31 -40 54 3 11 1 18 -4 14
-5 -3 -9 -1 -9 5 0 5 -3 17 -7 26 -5 16 -3 16 23 -1 22 -15 47 -19 114 -19z
m-42 -196 l-5 -24 -10 25 c-12 28 -6 47 9 32 5 -5 8 -20 6 -33z m289 21 c1
-11 -4 -19 -10 -17 -7 1 -11 -4 -9 -10 4 -21 -32 -15 -46 7 -10 17 -10 20 3
20 8 0 15 5 15 10 0 6 10 10 23 10 15 0 23 -6 24 -20z m53 -27 c0 -7 -4 -13
-10 -13 -5 0 -10 12 -10 28 0 21 2 24 10 12 5 -8 10 -21 10 -27z m-290 -12 c0
-6 -4 -13 -10 -16 -5 -3 -10 1 -10 9 0 9 5 16 10 16 6 0 10 -4 10 -9z m62 -39
c-8 -2 -8 -9 0 -22 7 -11 8 -23 4 -27 -5 -4 -11 -2 -13 5 -6 17 -23 15 -23 -3
0 -18 -12 -19 -28 -3 -18 18 -14 32 5 17 15 -12 16 -12 11 8 -5 17 1 28 20 42
24 18 27 18 31 3 2 -9 -2 -18 -7 -20z m383 28 c3 -5 1 -10 -4 -10 -6 0 -11 5
-11 10 0 6 2 10 4 10 3 0 8 -4 11 -10z m-87 -33 c-6 -17 -48 -22 -48 -5 0 8
12 15 26 16 17 1 24 -2 22 -11z m-388 -41 c0 -3 -4 -8 -10 -11 -5 -3 -10 -1
-10 4 0 6 5 11 10 11 6 0 10 -2 10 -4z m15 -36 c3 -6 -1 -7 -9 -4 -18 7 -21
14 -7 14 6 0 13 -4 16 -10z m1015 -89 c0 -21 -16 -2 -24 29 -7 24 -6 24 8 6 9
-11 16 -27 16 -35z m78 -158 c-45 -51 -156 -254 -169 -308 -6 -27 -7 -28 -8
-5 -1 33 24 85 99 211 69 116 81 132 88 124 3 -3 -2 -13 -10 -22z m-671 -105
c-3 -8 -6 -5 -6 6 -1 11 2 17 5 13 3 -3 4 -12 1 -19z m373 -233 c-7 -8 -20
-15 -29 -15 -13 1 -13 3 3 15 26 19 42 19 26 0z m120 -55 c-3 -27 -10 -53 -14
-57 -6 -7 1 66 10 95 8 27 10 9 4 -38z m-37 25 c-3 -9 -8 -14 -10 -11 -3 3 -2
9 2 15 9 16 15 13 8 -4z"/>
<path d="M900 2000 c0 -5 5 -10 10 -10 6 0 10 5 10 10 0 6 -4 10 -10 10 -5 0
-10 -4 -10 -10z"/>
<path d="M927 1996 c-3 -8 1 -22 8 -33 13 -17 14 -16 15 15 0 33 -13 43 -23
18z"/>
<path d="M838 1973 c-8 -10 -13 -24 -10 -32 3 -10 0 -12 -12 -8 -11 5 -16 1
-16 -12 0 -31 76 -43 87 -13 4 9 11 20 17 25 7 4 2 9 -11 13 -33 9 -28 24 5
18 34 -6 18 12 -18 21 -18 4 -31 1 -42 -12z"/>
<path d="M535 1859 c-9 -14 -2 -20 14 -10 8 6 9 11 3 15 -6 3 -14 1 -17 -5z"/>
<path d="M612 1808 c-7 -7 -12 -9 -12 -4 0 4 -12 -7 -26 -24 -24 -28 -35 -73
-21 -86 10 -10 57 8 57 22 0 8 11 32 24 53 14 21 22 42 19 45 -10 10 -28 7
-41 -6z"/>
<path d="M1547 1514 c-8 -8 1 -24 14 -24 5 0 9 7 9 15 0 15 -12 20 -23 9z"/>
<path d="M1661 1473 c-35 -43 -42 -66 -10 -37 20 18 21 18 40 -6 10 -14 19
-31 19 -37 0 -7 5 -13 10 -13 20 0 4 120 -16 127 -7 2 -26 -13 -43 -34z"/>
<path d="M1463 1493 c-13 -2 -23 -8 -23 -13 0 -7 79 6 89 16 5 5 -34 3 -66 -3z"/>
<path d="M1597 1361 c-6 -24 26 -56 48 -47 13 4 14 2 5 -14 -6 -12 -7 -20 -1
-20 13 0 34 67 26 81 -4 6 -16 9 -26 6 -11 -3 -19 -1 -19 4 0 18 -28 9 -33
-10z"/>
<path d="M1440 1062 c0 -6 -3 -11 -7 -9 -9 2 -13 -6 -13 -29 0 -11 6 -14 23
-8 31 9 31 10 13 36 -9 12 -16 17 -16 10z"/>
<path d="M1388 978 c9 -9 15 -9 24 0 9 9 7 12 -12 12 -19 0 -21 -3 -12 -12z"/>
<path d="M1465 980 c3 -6 0 -13 -9 -16 -9 -3 -12 -12 -9 -21 4 -10 2 -14 -4
-10 -6 4 -13 0 -17 -8 -6 -16 11 -20 30 -7 30 20 39 72 13 72 -6 0 -7 -5 -4
-10z"/>
<path d="M1320 901 c0 -10 19 -25 25 -20 1 2 -3 10 -11 17 -8 7 -14 8 -14 3z"/>
<path d="M1435 880 c3 -5 8 -10 11 -10 2 0 4 5 4 10 0 6 -5 10 -11 10 -5 0 -7
-4 -4 -10z"/>
<path d="M770 709 c0 -5 5 -7 10 -4 6 3 10 8 10 11 0 2 -4 4 -10 4 -5 0 -10
-5 -10 -11z"/>
<path d="M840 529 c0 -5 5 -7 10 -4 6 3 10 8 10 11 0 2 -4 4 -10 4 -5 0 -10
-5 -10 -11z"/>
<path d="M595 1240 c-3 -5 -2 -10 4 -10 5 0 13 5 16 10 3 6 2 10 -4 10 -5 0
-13 -4 -16 -10z"/>
</g>
</svg>
